<svg aria-hidden="true" style="position: absolute; width: 0; height: 0; overflow: hidden;" version="1.1" xmlns="http://www.w3.org/2000/svg" xmlns:xlink="http://www.w3.org/1999/xlink">
<defs>
<symbol id="icon-cart" viewBox="0 0 32 32">
<path fill="none" stroke="#484848" style="stroke: var(--color1, #484848)" stroke-linejoin="miter" stroke-linecap="round" stroke-miterlimit="4" stroke-width="1.3333" d="M10.667 16v-5.333c0-2.946 2.388-5.333 5.333-5.333v0c2.945 0 5.333 2.388 5.333 5.333v5.333"></path>
<path fill="none" stroke="#484848" style="stroke: var(--color1, #484848)" stroke-linejoin="miter" stroke-linecap="butt" stroke-miterlimit="4" stroke-width="1.3333" d="M4.926 16.89c0.193-2.321 0.29-3.482 1.056-4.186s1.93-0.704 4.259-0.704h11.519c2.329 0 3.494 0 4.259 0.704s0.862 1.865 1.056 4.186l0.685 8.221c0.113 1.351 0.169 2.027-0.227 2.458s-1.074 0.431-2.43 0.431h-18.204c-1.356 0-2.034 0-2.43-0.431s-0.34-1.106-0.227-2.458l0.685-8.221z"></path>
</symbol>
<symbol id="icon-account" viewBox="0 0 32 32">
<path fill="none" stroke-linejoin="miter" stroke-linecap="round" stroke-miterlimit="4" stroke-width="1.3333" d="M26.303 27.263c-0.608-1.701-1.947-3.204-3.81-4.276s-4.145-1.653-6.493-1.653-4.631 0.581-6.493 1.653c-1.863 1.072-3.202 2.575-3.81 4.276"></path>
<path fill="none" stroke-linejoin="miter" stroke-linecap="round" stroke-miterlimit="4" stroke-width="1.3333" d="M21.333 10.667c0 2.946-2.388 5.333-5.333 5.333s-5.333-2.388-5.333-5.333c0-2.946 2.388-5.333 5.333-5.333s5.333 2.388 5.333 5.333z"></path>
</symbol>
<symbol id="icon-catalog" viewBox="0 0 32 32">
<path stroke-linejoin="round" stroke-linecap="butt" stroke-miterlimit="4" stroke-width="1.3333" d="M6.667 5.333h5.333c0.736 0 1.333 0.597 1.333 1.333v5.333c0 0.736-0.597 1.333-1.333 1.333h-5.333c-0.736 0-1.333-0.597-1.333-1.333v-5.333c0-0.736 0.597-1.333 1.333-1.333z"></path>
<path stroke-linejoin="round" stroke-linecap="butt" stroke-miterlimit="4" stroke-width="1.3333" d="M6.667 18.667h5.333c0.736 0 1.333 0.597 1.333 1.333v5.333c0 0.736-0.597 1.333-1.333 1.333h-5.333c-0.736 0-1.333-0.597-1.333-1.333v-5.333c0-0.736 0.597-1.333 1.333-1.333z"></path>
<path stroke-linejoin="round" stroke-linecap="butt" stroke-miterlimit="4" stroke-width="1.3333" d="M20 18.667h5.333c0.736 0 1.333 0.597 1.333 1.333v5.333c0 0.736-0.597 1.333-1.333 1.333h-5.333c-0.736 0-1.333-0.597-1.333-1.333v-5.333c0-0.736 0.597-1.333 1.333-1.333z"></path>
<path stroke-linejoin="round" stroke-linecap="butt" stroke-miterlimit="4" stroke-width="1.3333" d="M20 5.333h5.333c0.736 0 1.333 0.597 1.333 1.333v5.333c0 0.736-0.597 1.333-1.333 1.333h-5.333c-0.736 0-1.333-0.597-1.333-1.333v-5.333c0-0.736 0.597-1.333 1.333-1.333z"></path>
</symbol>
<symbol id="icon-search" viewBox="0 0 32 32">
<path fill="none" stroke="#484848" style="stroke: var(--color1, #484848)" stroke-linejoin="miter" stroke-linecap="butt" stroke-miterlimit="4" stroke-width="1.3333" d="M22.667 14.667c0 4.418-3.582 8-8 8s-8-3.582-8-8c0-4.418 3.582-8 8-8s8 3.582 8 8z"></path>
<path fill="none" stroke="#484848" style="stroke: var(--color1, #484848)" stroke-linejoin="miter" stroke-linecap="round" stroke-miterlimit="4" stroke-width="1.3333" d="M26.667 26.667l-4-4"></path>
</symbol>
<symbol id="icon-mobile-menu" viewBox="0 0 32 32">
<path stroke-linejoin="miter" stroke-linecap="round" stroke-miterlimit="4" stroke-width="1.3333" d="M6.667 9.333h18.667"></path>
<path stroke-linejoin="miter" stroke-linecap="round" stroke-miterlimit="4" stroke-width="1.3333" d="M6.667 16h18.667"></path>
<path stroke-linejoin="miter" stroke-linecap="round" stroke-miterlimit="4" stroke-width="1.3333" d="M6.667 22.667h18.667"></path>
</symbol>
<symbol id="icon-phone" viewBox="0 0 32 32">
<path d="M8.906 4.427l0.818-0.818c0.521-0.521 1.365-0.521 1.886 0l3.448 3.448c0.521 0.521 0.521 1.365 0 1.886l-2.39 2.39c-0.399 0.399-0.497 1.007-0.245 1.511 1.457 2.914 3.82 5.277 6.734 6.734 0.504 0.252 1.113 0.153 1.511-0.245l2.39-2.39c0.521-0.521 1.365-0.521 1.886 0l3.448 3.448c0.521 0.521 0.521 1.365 0 1.886l-0.818 0.818c-2.815 2.815-7.272 3.132-10.457 0.743l-1.611-1.208c-2.325-1.743-4.39-3.809-6.133-6.133l-1.208-1.611c-2.389-3.185-2.072-7.642 0.743-10.457z"></path>
</symbol>
<symbol id="icon-signout" viewBox="0 0 32 32">
<path fill="#484848" style="fill: var(--color1, #484848)" d="M29.333 16l0.521 0.416 0.333-0.416-0.333-0.416-0.521 0.416zM17.333 15.333c-0.368 0-0.667 0.299-0.667 0.667s0.299 0.667 0.667 0.667v-1.333zM24.521 23.083l5.333-6.667-1.041-0.833-5.333 6.667 1.041 0.833zM29.854 15.584l-5.333-6.667-1.041 0.833 5.333 6.667 1.041-0.833zM29.333 15.333h-12v1.333h12v-1.333z"></path>
<path fill="none" stroke="#484848" style="stroke: var(--color1, #484848)" stroke-linejoin="miter" stroke-linecap="butt" stroke-miterlimit="4" stroke-width="1.3333" d="M18.667 21.157v0.991c0 2.158 0 3.237-0.632 3.983s-1.696 0.923-3.825 1.278l-2.228 0.371c-4.324 0.721-6.486 1.081-7.901-0.117s-1.415-3.39-1.415-7.774v-7.779c0-4.384 0-6.576 1.415-7.774s3.577-0.838 7.901-0.117l2.228 0.371c2.128 0.355 3.193 0.532 3.825 1.278s0.632 1.825 0.632 3.983v0.727"></path>
</symbol>
<symbol id="icon-up-light" viewBox="0 0 32 32">
<path fill="none" stroke="#7faa84" style="stroke: var(--color1, #7faa84)" stroke-linejoin="miter" stroke-linecap="butt" stroke-miterlimit="4" stroke-width="1.3333" d="M8 20l8-8 8 8"></path>
</symbol>
<symbol id="icon-down-light" viewBox="0 0 32 32">
<path fill="none" stroke="#7faa84" style="stroke: var(--color1, #7faa84)" stroke-linejoin="miter" stroke-linecap="butt" stroke-miterlimit="4" stroke-width="1.3333" d="M24 12l-8 8-8-8"></path>
</symbol>
<symbol id="icon-user" viewBox="0 0 32 32">
<path fill="#7faa84" style="fill: var(--color1, #7faa84)" d="M26.202 27.207c0.737-0.154 1.176-0.925 0.81-1.583-0.807-1.45-2.079-2.725-3.707-3.696-2.096-1.251-4.663-1.929-7.305-1.929s-5.209 0.678-7.305 1.929c-1.627 0.971-2.899 2.246-3.707 3.696-0.366 0.658 0.073 1.429 0.81 1.583 6.729 1.402 13.675 1.402 20.404 0z"></path>
<path fill="#7faa84" style="fill: var(--color1, #7faa84)" d="M22.667 10.667c0 3.682-2.985 6.667-6.667 6.667s-6.667-2.985-6.667-6.667c0-3.682 2.985-6.667 6.667-6.667s6.667 2.985 6.667 6.667z"></path>
</symbol>
<symbol id="icon-cash" viewBox="0 0 32 32">
<path fill="#7faa84" style="fill: var(--color1, #7faa84)" d="M2.669 13.333c0.016-2.9 0.145-4.471 1.169-5.495 1.172-1.172 3.057-1.172 6.828-1.172h10.667c3.771 0 5.657 0 6.828 1.172 1.025 1.025 1.153 2.595 1.169 5.495h-26.662zM29.333 16h-26.667v2.667c0 3.771 0 5.657 1.172 6.828s3.057 1.172 6.828 1.172h10.667c3.771 0 5.657 0 6.828-1.172s1.172-3.057 1.172-6.828v-2.667zM9.333 20c-0.736 0-1.333 0.597-1.333 1.333s0.597 1.333 1.333 1.333h0.013c0.736 0 1.333-0.597 1.333-1.333s-0.597-1.333-1.333-1.333h-0.013z"></path>
</symbol>
<symbol id="icon-address" viewBox="0 0 32 32">
<path fill="#7faa84" style="fill: var(--color1, #7faa84)" d="M16.531 23.739c-0.337 0.175-0.724 0.175-1.061 0-1.977-1.026-8.803-5.050-8.803-11.739 0-5.155 4.179-9.333 9.333-9.333s9.333 4.179 9.333 9.333c0 6.688-6.825 10.713-8.803 11.739zM16 16c2.209 0 4-1.791 4-4s-1.791-4-4-4-4 1.791-4 4c0 2.209 1.791 4 4 4z"></path>
<path fill="none" stroke="#7faa84" style="stroke: var(--color1, #7faa84)" stroke-linejoin="miter" stroke-linecap="round" stroke-miterlimit="4" stroke-width="2.6667" d="M24.083 22c0.819 0.608 1.25 1.298 1.25 2s-0.431 1.392-1.25 2c-0.819 0.608-1.997 1.113-3.416 1.464s-3.028 0.536-4.667 0.536c-1.638 0-3.248-0.185-4.667-0.536s-2.597-0.856-3.416-1.464c-0.819-0.608-1.25-1.298-1.25-2s0.431-1.392 1.25-2"></path>
</symbol>
</defs>
</svg>
