<svg aria-hidden="true" style="position: absolute; width: 0; height: 0; overflow: hidden;" version="1.1" xmlns="http://www.w3.org/2000/svg" xmlns:xlink="http://www.w3.org/1999/xlink">
<defs>
<symbol id="icon-cart" viewBox="0 0 32 32">
<path stroke-linejoin="miter" stroke-linecap="round" stroke-miterlimit="4" stroke-width="1.3333" d="M10.667 16v-5.333c0-2.946 2.388-5.333 5.333-5.333v0c2.945 0 5.333 2.388 5.333 5.333v5.333"></path>
<path stroke-linejoin="miter" stroke-linecap="butt" stroke-miterlimit="4" stroke-width="1.3333" d="M4.926 16.89c0.193-2.321 0.29-3.482 1.056-4.186s1.93-0.704 4.259-0.704h11.519c2.329 0 3.494 0 4.259 0.704s0.862 1.865 1.056 4.186l0.685 8.221c0.113 1.351 0.169 2.027-0.227 2.458s-1.074 0.431-2.43 0.431h-18.204c-1.356 0-2.034 0-2.43-0.431s-0.34-1.106-0.227-2.458l0.685-8.221z"></path>
</symbol>
<symbol id="icon-account" viewBox="0 0 32 32">
<path  stroke-linejoin="miter" stroke-linecap="round" stroke-miterlimit="4" stroke-width="1.3333" d="M26.303 27.263c-0.608-1.701-1.947-3.204-3.81-4.276s-4.145-1.653-6.493-1.653-4.631 0.581-6.493 1.653c-1.863 1.072-3.202 2.575-3.81 4.276"></path>
<path  stroke-linejoin="miter" stroke-linecap="round" stroke-miterlimit="4" stroke-width="1.3333" d="M21.333 10.667c0 2.946-2.388 5.333-5.333 5.333s-5.333-2.388-5.333-5.333c0-2.946 2.388-5.333 5.333-5.333s5.333 2.388 5.333 5.333z"></path>
</symbol>
<symbol id="icon-catalog" viewBox="0 0 32 32">
<path stroke-linejoin="round" stroke-linecap="butt" stroke-miterlimit="4" stroke-width="1.3333" d="M6.667 5.333h5.333c0.736 0 1.333 0.597 1.333 1.333v5.333c0 0.736-0.597 1.333-1.333 1.333h-5.333c-0.736 0-1.333-0.597-1.333-1.333v-5.333c0-0.736 0.597-1.333 1.333-1.333z"></path>
<path stroke-linejoin="round" stroke-linecap="butt" stroke-miterlimit="4" stroke-width="1.3333" d="M6.667 18.667h5.333c0.736 0 1.333 0.597 1.333 1.333v5.333c0 0.736-0.597 1.333-1.333 1.333h-5.333c-0.736 0-1.333-0.597-1.333-1.333v-5.333c0-0.736 0.597-1.333 1.333-1.333z"></path>
<path stroke-linejoin="round" stroke-linecap="butt" stroke-miterlimit="4" stroke-width="1.3333" d="M20 18.667h5.333c0.736 0 1.333 0.597 1.333 1.333v5.333c0 0.736-0.597 1.333-1.333 1.333h-5.333c-0.736 0-1.333-0.597-1.333-1.333v-5.333c0-0.736 0.597-1.333 1.333-1.333z"></path>
<path stroke-linejoin="round" stroke-linecap="butt" stroke-miterlimit="4" stroke-width="1.3333" d="M20 5.333h5.333c0.736 0 1.333 0.597 1.333 1.333v5.333c0 0.736-0.597 1.333-1.333 1.333h-5.333c-0.736 0-1.333-0.597-1.333-1.333v-5.333c0-0.736 0.597-1.333 1.333-1.333z"></path>
</symbol>
<symbol id="icon-search" viewBox="0 0 32 32">
<path fill="none" stroke="#484848" style="stroke: var(--color1, #484848)" stroke-linejoin="miter" stroke-linecap="butt" stroke-miterlimit="4" stroke-width="1.3333" d="M22.667 14.667c0 4.418-3.582 8-8 8s-8-3.582-8-8c0-4.418 3.582-8 8-8s8 3.582 8 8z"></path>
<path fill="none" stroke="#484848" style="stroke: var(--color1, #484848)" stroke-linejoin="miter" stroke-linecap="round" stroke-miterlimit="4" stroke-width="1.3333" d="M26.667 26.667l-4-4"></path>
</symbol>
<symbol id="icon-mobile-menu" viewBox="0 0 32 32">
<path stroke-linejoin="miter" stroke-linecap="round" stroke-miterlimit="4" stroke-width="1.3333" d="M6.667 9.333h18.667"></path>
<path stroke-linejoin="miter" stroke-linecap="round" stroke-miterlimit="4" stroke-width="1.3333" d="M6.667 16h18.667"></path>
<path stroke-linejoin="miter" stroke-linecap="round" stroke-miterlimit="4" stroke-width="1.3333" d="M6.667 22.667h18.667"></path>
</symbol>
<symbol id="icon-phone" viewBox="0 0 32 32">
<path d="M8.906 4.427l0.818-0.818c0.521-0.521 1.365-0.521 1.886 0l3.448 3.448c0.521 0.521 0.521 1.365 0 1.886l-2.39 2.39c-0.399 0.399-0.497 1.007-0.245 1.511 1.457 2.914 3.82 5.277 6.734 6.734 0.504 0.252 1.113 0.153 1.511-0.245l2.39-2.39c0.521-0.521 1.365-0.521 1.886 0l3.448 3.448c0.521 0.521 0.521 1.365 0 1.886l-0.818 0.818c-2.815 2.815-7.272 3.132-10.457 0.743l-1.611-1.208c-2.325-1.743-4.39-3.809-6.133-6.133l-1.208-1.611c-2.389-3.185-2.072-7.642 0.743-10.457z"></path>
</symbol>
<symbol id="icon-signout" viewBox="0 0 32 32">
<path fill="#484848" style="fill: var(--color1, #484848)" d="M29.333 16l0.521 0.416 0.333-0.416-0.333-0.416-0.521 0.416zM17.333 15.333c-0.368 0-0.667 0.299-0.667 0.667s0.299 0.667 0.667 0.667v-1.333zM24.521 23.083l5.333-6.667-1.041-0.833-5.333 6.667 1.041 0.833zM29.854 15.584l-5.333-6.667-1.041 0.833 5.333 6.667 1.041-0.833zM29.333 15.333h-12v1.333h12v-1.333z"></path>
<path fill="none" stroke="#484848" style="stroke: var(--color1, #484848)" stroke-linejoin="miter" stroke-linecap="butt" stroke-miterlimit="4" stroke-width="1.3333" d="M18.667 21.157v0.991c0 2.158 0 3.237-0.632 3.983s-1.696 0.923-3.825 1.278l-2.228 0.371c-4.324 0.721-6.486 1.081-7.901-0.117s-1.415-3.39-1.415-7.774v-7.779c0-4.384 0-6.576 1.415-7.774s3.577-0.838 7.901-0.117l2.228 0.371c2.128 0.355 3.193 0.532 3.825 1.278s0.632 1.825 0.632 3.983v0.727"></path>
</symbol>
<symbol id="icon-up-light" viewBox="0 0 32 32">
<path fill="none" stroke="#7faa84" style="stroke: var(--color1, #7faa84)" stroke-linejoin="miter" stroke-linecap="butt" stroke-miterlimit="4" stroke-width="1.3333" d="M8 20l8-8 8 8"></path>
</symbol>
<symbol id="icon-down-light" viewBox="0 0 32 32">
<path fill="none" stroke="#7faa84" style="stroke: var(--color1, #7faa84)" stroke-linejoin="miter" stroke-linecap="butt" stroke-miterlimit="4" stroke-width="1.3333" d="M24 12l-8 8-8-8"></path>
</symbol>
<symbol id="icon-user" viewBox="0 0 32 32">
<path  d="M26.202 27.207c0.737-0.154 1.176-0.925 0.81-1.583-0.807-1.45-2.079-2.725-3.707-3.696-2.096-1.251-4.663-1.929-7.305-1.929s-5.209 0.678-7.305 1.929c-1.627 0.971-2.899 2.246-3.707 3.696-0.366 0.658 0.073 1.429 0.81 1.583 6.729 1.402 13.675 1.402 20.404 0z"></path>
<path  d="M22.667 10.667c0 3.682-2.985 6.667-6.667 6.667s-6.667-2.985-6.667-6.667c0-3.682 2.985-6.667 6.667-6.667s6.667 2.985 6.667 6.667z"></path>
</symbol>
<symbol id="icon-cash" viewBox="0 0 32 32">
<path fill="#7faa84" style="fill: var(--color1, #7faa84)" d="M2.669 13.333c0.016-2.9 0.145-4.471 1.169-5.495 1.172-1.172 3.057-1.172 6.828-1.172h10.667c3.771 0 5.657 0 6.828 1.172 1.025 1.025 1.153 2.595 1.169 5.495h-26.662zM29.333 16h-26.667v2.667c0 3.771 0 5.657 1.172 6.828s3.057 1.172 6.828 1.172h10.667c3.771 0 5.657 0 6.828-1.172s1.172-3.057 1.172-6.828v-2.667zM9.333 20c-0.736 0-1.333 0.597-1.333 1.333s0.597 1.333 1.333 1.333h0.013c0.736 0 1.333-0.597 1.333-1.333s-0.597-1.333-1.333-1.333h-0.013z"></path>
</symbol>
<symbol id="icon-address" viewBox="0 0 32 32">
<path fill="#7faa84" style="fill: var(--color1, #7faa84)" d="M16.531 23.739c-0.337 0.175-0.724 0.175-1.061 0-1.977-1.026-8.803-5.050-8.803-11.739 0-5.155 4.179-9.333 9.333-9.333s9.333 4.179 9.333 9.333c0 6.688-6.825 10.713-8.803 11.739zM16 16c2.209 0 4-1.791 4-4s-1.791-4-4-4-4 1.791-4 4c0 2.209 1.791 4 4 4z"></path>
<path fill="none" stroke="#7faa84" style="stroke: var(--color1, #7faa84)" stroke-linejoin="miter" stroke-linecap="round" stroke-miterlimit="4" stroke-width="2.6667" d="M24.083 22c0.819 0.608 1.25 1.298 1.25 2s-0.431 1.392-1.25 2c-0.819 0.608-1.997 1.113-3.416 1.464s-3.028 0.536-4.667 0.536c-1.638 0-3.248-0.185-4.667-0.536s-2.597-0.856-3.416-1.464c-0.819-0.608-1.25-1.298-1.25-2s0.431-1.392 1.25-2"></path>
</symbol>
<symbol id="icon-status-in-stock" viewBox="0 0 32 32">
<path fill="none" stroke="#7faa84" style="stroke: var(--color1, #7faa84)" stroke-linejoin="miter" stroke-linecap="round" stroke-miterlimit="4" stroke-width="1.6" d="M12 13.333l4.146 3.11c0.67 0.502 1.613 0.404 2.164-0.226l8.356-9.55"></path>
<path fill="none" stroke="#7faa84" style="stroke: var(--color1, #7faa84)" stroke-linejoin="miter" stroke-linecap="round" stroke-miterlimit="4" stroke-width="1.6" d="M28 16c0 2.507-0.785 4.952-2.246 6.99s-3.523 3.568-5.897 4.373-4.941 0.848-7.341 0.12c-2.399-0.728-4.51-2.189-6.037-4.178s-2.391-4.407-2.473-6.912c-0.082-2.506 0.623-4.975 2.016-7.059s3.404-3.681 5.751-4.564c2.347-0.883 4.911-1.009 7.333-0.36"></path>
</symbol>
<symbol id="icon-bag" viewBox="0 0 32 32">
<path fill="none" stroke="#7faa84" style="stroke: var(--color1, #7faa84)" stroke-linejoin="miter" stroke-linecap="round" stroke-miterlimit="4" stroke-width="1.3333" d="M10.667 16v-5.333c0-2.946 2.388-5.333 5.333-5.333v0c2.945 0 5.333 2.388 5.333 5.333v5.333"></path>
<path fill="none" stroke="#7faa84" style="stroke: var(--color1, #7faa84)" stroke-linejoin="miter" stroke-linecap="butt" stroke-miterlimit="4" stroke-width="1.3333" d="M4.926 16.89c0.193-2.321 0.29-3.482 1.056-4.186s1.93-0.704 4.259-0.704h11.519c2.329 0 3.494 0 4.259 0.704s0.862 1.865 1.056 4.186l0.685 8.221c0.113 1.351 0.169 2.027-0.227 2.458s-1.074 0.431-2.43 0.431h-18.204c-1.356 0-2.034 0-2.43-0.431s-0.34-1.106-0.227-2.458l0.685-8.221z"></path>
</symbol>
<symbol id="icon-arrow-left" viewBox="0 0 32 32">
<path fill="none" stroke-linejoin="miter" stroke-linecap="butt" stroke-miterlimit="4" stroke-width="1.3333" d="M20 24l-8-8 8-8"></path>
</symbol>
<symbol id="icon-arrow-right" viewBox="0 0 32 32">
<path fill="none" stroke-linejoin="miter" stroke-linecap="butt" stroke-miterlimit="4" stroke-width="1.3333" d="M12 8l8 8-8 8"></path>
</symbol>
<symbol id="icon-facebook" viewBox="0 0 33 32">
<path fill="#484848" style="fill: var(--color1, #484848)" d="M33.333 16.097c0-8.891-7.164-16.098-16.001-16.098s-16.001 7.207-16.001 16.098c0 8.035 5.851 14.695 13.501 15.903v-11.249h-4.063v-4.653h4.063v-3.547c0-4.035 2.389-6.263 6.044-6.263 1.751 0 3.582 0.314 3.582 0.314v3.962h-2.018c-1.988 0-2.608 1.241-2.608 2.514v3.020h4.438l-0.709 4.653h-3.728v11.249c7.65-1.208 13.501-7.868 13.501-15.903z"></path>
</symbol>
<symbol id="icon-instagram" viewBox="0 0 32 32">
<path fill="#484848" style="fill: var(--color1, #484848)" d="M15.996 10.664c-2.938 0-5.336 2.398-5.336 5.336s2.398 5.336 5.336 5.336c2.938 0 5.335-2.398 5.335-5.336s-2.398-5.336-5.335-5.336zM31.998 16c0-2.209 0.020-4.399-0.104-6.604-0.124-2.562-0.708-4.835-2.582-6.709-1.877-1.877-4.147-2.458-6.708-2.582-2.209-0.124-4.399-0.104-6.604-0.104-2.209 0-4.399-0.020-6.604 0.104-2.562 0.124-4.835 0.708-6.708 2.582-1.877 1.877-2.458 4.147-2.582 6.709-0.124 2.21-0.104 4.399-0.104 6.604s-0.020 4.399 0.104 6.604c0.124 2.562 0.708 4.835 2.582 6.709 1.877 1.877 4.147 2.458 6.708 2.582 2.209 0.124 4.399 0.104 6.604 0.104 2.209 0 4.399 0.020 6.604-0.104 2.562-0.124 4.835-0.709 6.708-2.582 1.877-1.877 2.458-4.147 2.582-6.709 0.128-2.205 0.104-4.395 0.104-6.604zM15.996 24.21c-4.543 0-8.209-3.667-8.209-8.21s3.666-8.21 8.209-8.21c4.543 0 8.209 3.666 8.209 8.21s-3.666 8.21-8.209 8.21zM24.541 9.372c-1.061 0-1.917-0.857-1.917-1.917s0.857-1.917 1.917-1.917c1.061 0 1.917 0.857 1.917 1.917 0 0.252-0.049 0.501-0.145 0.734s-0.237 0.444-0.416 0.622-0.39 0.319-0.622 0.416c-0.233 0.096-0.482 0.146-0.734 0.145z"></path>
</symbol>
<symbol id="icon-telegram" viewBox="0 0 32 32">
<path fill="#484848" style="fill: var(--color1, #484848)" d="M32 16c0 8.837-7.163 16-16 16s-16-7.163-16-16c0-8.837 7.163-16 16-16s16 7.163 16 16zM16.573 11.812c-1.556 0.647-4.667 1.987-9.331 4.019-0.757 0.301-1.154 0.596-1.19 0.884-0.061 0.487 0.549 0.679 1.379 0.94 0.113 0.035 0.23 0.072 0.35 0.111 0.817 0.265 1.916 0.576 2.487 0.589 0.518 0.011 1.097-0.203 1.735-0.641 4.358-2.942 6.608-4.429 6.749-4.461 0.1-0.023 0.238-0.051 0.331 0.032s0.084 0.241 0.075 0.283c-0.060 0.257-2.454 2.483-3.693 3.634-0.386 0.359-0.66 0.614-0.716 0.672-0.125 0.13-0.253 0.253-0.376 0.372-0.759 0.732-1.328 1.28 0.032 2.176 0.653 0.431 1.176 0.787 1.698 1.142 0.57 0.388 1.138 0.775 1.873 1.257 0.187 0.123 0.366 0.25 0.54 0.375 0.663 0.473 1.259 0.897 1.994 0.829 0.428-0.039 0.869-0.441 1.093-1.64 0.53-2.834 1.572-8.973 1.813-11.503 0.021-0.222-0.005-0.505-0.027-0.63s-0.066-0.302-0.228-0.433c-0.192-0.156-0.488-0.188-0.62-0.186-0.602 0.011-1.525 0.332-5.968 2.18z"></path>
</symbol>
<symbol id="icon-copyright" viewBox="0 0 32 32">
<path fill="#484848" style="fill: var(--color1, #484848)" d="M16 3.25c-2.522 0-4.987 0.748-7.084 2.149s-3.731 3.392-4.696 5.722c-0.965 2.33-1.218 4.893-0.726 7.367s1.706 4.745 3.489 6.528 4.055 2.997 6.528 3.489c2.473 0.492 5.037 0.239 7.367-0.726s4.321-2.599 5.722-4.696c1.401-2.097 2.149-4.562 2.149-7.083-0.007-3.379-1.352-6.619-3.742-9.008s-5.629-3.735-9.008-3.742zM16 27.25c-2.225 0-4.4-0.66-6.25-1.896s-3.292-2.993-4.143-5.049c-0.851-2.056-1.074-4.318-0.64-6.5s1.506-4.187 3.079-5.76c1.573-1.573 3.578-2.645 5.76-3.079s4.444-0.211 6.5 0.64c2.056 0.851 3.813 2.293 5.049 4.143s1.896 4.025 1.896 6.25c-0.003 2.983-1.19 5.842-3.299 7.951s-4.969 3.295-7.951 3.299zM11.75 16c0 0.892 0.281 1.761 0.802 2.485s1.258 1.265 2.104 1.547c0.846 0.282 1.76 0.291 2.611 0.025s1.598-0.793 2.133-1.507c0.119-0.159 0.297-0.264 0.494-0.292s0.397 0.023 0.556 0.142c0.159 0.119 0.264 0.297 0.293 0.494s-0.023 0.397-0.143 0.556c-0.724 0.965-1.734 1.679-2.885 2.038s-2.388 0.348-3.533-0.033c-1.145-0.382-2.141-1.114-2.846-2.093s-1.085-2.155-1.085-3.362 0.38-2.383 1.085-3.362c0.706-0.979 1.701-1.711 2.846-2.093s2.381-0.393 3.533-0.034c1.152 0.36 2.161 1.073 2.885 2.038 0.059 0.079 0.102 0.168 0.127 0.264s0.030 0.195 0.016 0.292c-0.014 0.098-0.047 0.191-0.097 0.276s-0.117 0.159-0.195 0.218-0.168 0.102-0.264 0.127c-0.095 0.024-0.195 0.030-0.292 0.016s-0.191-0.047-0.276-0.097c-0.085-0.050-0.159-0.117-0.218-0.195-0.535-0.714-1.281-1.241-2.133-1.507s-1.765-0.257-2.611 0.025c-0.846 0.282-1.582 0.823-2.104 1.547s-0.802 1.593-0.802 2.485z"></path>
</symbol>
<symbol id="icon-search" viewBox="0 0 32 32">
<path fill="none" stroke="#484848" style="stroke: var(--color1, #484848)" stroke-linejoin="miter" stroke-linecap="butt" stroke-miterlimit="4" stroke-width="1.3333" d="M22.667 14.667c0 4.418-3.582 8-8 8s-8-3.582-8-8c0-4.418 3.582-8 8-8s8 3.582 8 8z"></path>
<path fill="none" stroke="#484848" style="stroke: var(--color1, #484848)" stroke-linejoin="miter" stroke-linecap="round" stroke-miterlimit="4" stroke-width="1.3333" d="M26.667 26.667l-4-4"></path>
</symbol>
<symbol id="icon-catalog" viewBox="0 0 32 32">
<path stroke-linejoin="round" stroke-linecap="butt" stroke-miterlimit="4" stroke-width="1.3333" d="M6.667 5.333h5.333c0.736 0 1.333 0.597 1.333 1.333v5.333c0 0.736-0.597 1.333-1.333 1.333h-5.333c-0.736 0-1.333-0.597-1.333-1.333v-5.333c0-0.736 0.597-1.333 1.333-1.333z"></path>
<path stroke-linejoin="round" stroke-linecap="butt" stroke-miterlimit="4" stroke-width="1.3333" d="M6.667 18.667h5.333c0.736 0 1.333 0.597 1.333 1.333v5.333c0 0.736-0.597 1.333-1.333 1.333h-5.333c-0.736 0-1.333-0.597-1.333-1.333v-5.333c0-0.736 0.597-1.333 1.333-1.333z"></path>
<path stroke-linejoin="round" stroke-linecap="butt" stroke-miterlimit="4" stroke-width="1.3333" d="M20 18.667h5.333c0.736 0 1.333 0.597 1.333 1.333v5.333c0 0.736-0.597 1.333-1.333 1.333h-5.333c-0.736 0-1.333-0.597-1.333-1.333v-5.333c0-0.736 0.597-1.333 1.333-1.333z"></path>
<path stroke-linejoin="round" stroke-linecap="butt" stroke-miterlimit="4" stroke-width="1.3333" d="M20 5.333h5.333c0.736 0 1.333 0.597 1.333 1.333v5.333c0 0.736-0.597 1.333-1.333 1.333h-5.333c-0.736 0-1.333-0.597-1.333-1.333v-5.333c0-0.736 0.597-1.333 1.333-1.333z"></path>
</symbol>
<symbol id="icon-arrow-down" viewBox="0 0 32 32">
<path stroke-linejoin="miter" stroke-linecap="butt" stroke-miterlimit="4" stroke-width="1.3333" d="M24 12l-8 8-8-8"></path>
</symbol>
<symbol id="icon-phone" viewBox="0 0 32 32">
<path d="M8.906 4.427l0.818-0.818c0.521-0.521 1.365-0.521 1.886 0l3.448 3.448c0.521 0.521 0.521 1.365 0 1.886l-2.39 2.39c-0.399 0.399-0.497 1.007-0.245 1.511 1.457 2.914 3.82 5.277 6.734 6.734 0.504 0.252 1.113 0.153 1.511-0.245l2.39-2.39c0.521-0.521 1.365-0.521 1.886 0l3.448 3.448c0.521 0.521 0.521 1.365 0 1.886l-0.818 0.818c-2.815 2.815-7.272 3.132-10.457 0.743l-1.611-1.208c-2.325-1.743-4.39-3.809-6.133-6.133l-1.208-1.611c-2.389-3.185-2.072-7.642 0.743-10.457z"></path>
</symbol>
<symbol id="icon-clock" viewBox="0 0 32 32">
<path d="M16 3.5c-2.472 0-4.889 0.733-6.945 2.107s-3.658 3.326-4.604 5.61c-0.946 2.284-1.194 4.797-0.711 7.222s1.673 4.652 3.421 6.4 3.975 2.939 6.4 3.421c2.425 0.482 4.938 0.235 7.222-0.711s4.236-2.548 5.61-4.604c1.374-2.056 2.107-4.472 2.107-6.945-0.007-3.313-1.326-6.489-3.668-8.832s-5.518-3.662-8.832-3.668zM16 27.5c-2.275 0-4.498-0.674-6.389-1.938s-3.365-3.060-4.236-5.161c-0.87-2.101-1.098-4.414-0.654-6.644s1.539-4.28 3.147-5.888 3.657-2.704 5.888-3.147c2.231-0.444 4.543-0.216 6.644 0.654s3.897 2.344 5.161 4.236c1.264 1.891 1.938 4.115 1.938 6.389-0.003 3.049-1.216 5.972-3.372 8.128s-5.079 3.369-8.128 3.372zM23.5 16c0 0.133-0.053 0.26-0.146 0.354s-0.221 0.146-0.354 0.146h-7c-0.133 0-0.26-0.053-0.354-0.146s-0.146-0.221-0.146-0.354v-7c0-0.133 0.053-0.26 0.146-0.354s0.221-0.146 0.354-0.146 0.26 0.053 0.354 0.146c0.094 0.094 0.146 0.221 0.146 0.354v6.5h6.5c0.133 0 0.26 0.053 0.354 0.146s0.146 0.221 0.146 0.354z"></path>
</symbol>
<symbol id="icon-filter" viewBox="0 0 32 32">
<path fill="#484848" style="fill: var(--color1, #484848)" d="M19.714 21.714c0.227 0 0.445 0.090 0.606 0.251s0.251 0.379 0.251 0.606-0.090 0.445-0.251 0.606c-0.161 0.161-0.379 0.251-0.606 0.251h-7.429c-0.227 0-0.445-0.090-0.606-0.251s-0.251-0.379-0.251-0.606 0.090-0.445 0.251-0.606c0.161-0.161 0.379-0.251 0.606-0.251h7.429zM24.286 14.857c0.227 0 0.445 0.090 0.606 0.251s0.251 0.379 0.251 0.606-0.090 0.445-0.251 0.606c-0.161 0.161-0.379 0.251-0.606 0.251h-16.571c-0.227 0-0.445-0.090-0.606-0.251s-0.251-0.379-0.251-0.606 0.090-0.445 0.251-0.606c0.161-0.161 0.379-0.251 0.606-0.251h16.571zM27.714 8c0.227 0 0.445 0.090 0.606 0.251s0.251 0.379 0.251 0.606-0.090 0.445-0.251 0.606c-0.161 0.161-0.379 0.251-0.606 0.251h-23.429c-0.227 0-0.445-0.090-0.606-0.251s-0.251-0.379-0.251-0.606c0-0.227 0.090-0.445 0.251-0.606s0.379-0.251 0.606-0.251h23.429z"></path>
</symbol>
<symbol id="icon-sort" viewBox="0 0 32 32">
<path fill="#484848" style="fill: var(--color1, #484848)" d="M14.712 21.287c0.188 0.19 0.293 0.446 0.293 0.712s-0.105 0.523-0.293 0.713l-4 4c-0.191 0.185-0.447 0.288-0.713 0.288s-0.521-0.103-0.713-0.288l-4-4c-0.159-0.194-0.241-0.441-0.229-0.692s0.118-0.489 0.295-0.666c0.178-0.178 0.415-0.283 0.666-0.295s0.498 0.069 0.692 0.229l2.288 2.3v-17.588c0-0.265 0.105-0.52 0.293-0.707s0.442-0.293 0.707-0.293c0.265 0 0.52 0.105 0.707 0.293s0.293 0.442 0.293 0.707v17.588l2.287-2.3c0.19-0.188 0.446-0.293 0.713-0.293s0.523 0.105 0.712 0.293zM26.712 9.287l-4-4c-0.189-0.188-0.446-0.293-0.712-0.293s-0.523 0.105-0.713 0.293l-4 4c-0.159 0.194-0.241 0.441-0.229 0.692s0.118 0.489 0.295 0.666 0.415 0.283 0.666 0.295c0.251 0.012 0.498-0.069 0.692-0.229l2.288-2.3v17.587c0 0.265 0.105 0.52 0.293 0.707s0.442 0.293 0.707 0.293 0.519-0.105 0.707-0.293c0.188-0.188 0.293-0.442 0.293-0.707v-17.587l2.287 2.3c0.191 0.185 0.447 0.288 0.713 0.288s0.521-0.103 0.712-0.288c0.188-0.19 0.293-0.446 0.293-0.713s-0.105-0.523-0.293-0.713z"></path>
</symbol>
<symbol id="icon-left" viewBox="0 0 32 32">
<path fill="#484848" style="fill: var(--color1, #484848)" d="M8 16l-0.471 0.471-0.471-0.471 0.471-0.471 0.471 0.471zM24 15.333c0.368 0 0.667 0.299 0.667 0.667s-0.299 0.667-0.667 0.667v-1.333zM12.862 21.805l-5.333-5.333 0.943-0.943 5.333 5.333-0.943 0.943zM7.529 15.529l5.333-5.333 0.943 0.943-5.333 5.333-0.943-0.943zM8 15.333h16v1.333h-16v-1.333z"></path>
</symbol>
<symbol id="icon-right" viewBox="0 0 32 32">
<path fill="#484848" style="fill: var(--color1, #484848)" d="M24 16l0.471-0.471 0.471 0.471-0.471 0.471-0.471-0.471zM8 16.667c-0.368 0-0.667-0.299-0.667-0.667s0.298-0.667 0.667-0.667v1.333zM19.138 10.195l5.333 5.333-0.943 0.943-5.333-5.333 0.943-0.943zM24.471 16.471l-5.333 5.333-0.943-0.943 5.333-5.333 0.943 0.943zM24 16.667h-16v-1.333h16v1.333z"></path>
</symbol>
<symbol id="credit-card" viewBox="0 0 32 32">
<path fill="none" stroke="#484848" style="stroke: var(--color1, #484848)" stroke-linejoin="miter" stroke-linecap="butt" stroke-miterlimit="4" stroke-width="1.0667" d="M6.133 8h19.733c1.178 0 2.133 0.955 2.133 2.133v13.067c0 1.178-0.955 2.133-2.133 2.133h-19.733c-1.178 0-2.133-0.955-2.133-2.133v-13.067c0-1.178 0.955-2.133 2.133-2.133z"></path>
<path fill="none" stroke="#484848" style="stroke: var(--color1, #484848)" stroke-linejoin="miter" stroke-linecap="round" stroke-miterlimit="4" stroke-width="1.0667" d="M9.333 20h0.013"></path>
<path fill="none" stroke="#484848" style="stroke: var(--color1, #484848)" stroke-linejoin="miter" stroke-linecap="round" stroke-miterlimit="4" stroke-width="1.0667" d="M4 14.667h24"></path>
</symbol>
<symbol id="refresh" viewBox="0 0 32 32">
<path fill="none" stroke="#484848" style="stroke: var(--color1, #484848)" stroke-linejoin="miter" stroke-linecap="butt" stroke-miterlimit="4" stroke-width="1.0667" d="M18.667 20l-5.333 5.333 5.333 5.333"></path>
<path fill="none" stroke="#484848" style="stroke: var(--color1, #484848)" stroke-linejoin="miter" stroke-linecap="round" stroke-miterlimit="4" stroke-width="1.0667" d="M24.083 11.333c0.869 1.505 1.3 3.222 1.246 4.959s-0.593 3.424-1.554 4.871c-0.961 1.447-2.308 2.598-3.887 3.322s-3.33 0.992-5.054 0.775"></path>
<path fill="none" stroke="#484848" style="stroke: var(--color1, #484848)" stroke-linejoin="miter" stroke-linecap="butt" stroke-miterlimit="4" stroke-width="1.0667" d="M13.333 12l5.333-5.333-5.333-5.333"></path>
<path fill="none" stroke="#484848" style="stroke: var(--color1, #484848)" stroke-linejoin="miter" stroke-linecap="round" stroke-miterlimit="4" stroke-width="1.0667" d="M7.917 20.667c-0.881-1.527-1.312-3.272-1.243-5.033s0.636-3.467 1.634-4.92c0.999-1.453 2.388-2.593 4.008-3.289s3.403-0.919 5.144-0.643"></path>
</symbol>
<symbol id="box" viewBox="0 0 32 32">
<path fill="none" stroke="#484848" style="stroke: var(--color1, #484848)" stroke-linejoin="miter" stroke-linecap="butt" stroke-miterlimit="4" stroke-width="1.0667" d="M8 15.101c0-0.872 0-1.308 0.162-1.7s0.471-0.7 1.087-1.317l1.501-1.501c0.617-0.617 0.925-0.925 1.317-1.087s0.828-0.162 1.7-0.162h4.465c0.872 0 1.308 0 1.7 0.162s0.7 0.471 1.317 1.087l1.501 1.501c0.617 0.617 0.925 0.925 1.087 1.317s0.162 0.828 0.162 1.7v7.299c0 2.011 0 3.017-0.625 3.642s-1.631 0.625-3.642 0.625h-7.467c-2.011 0-3.017 0-3.642-0.625s-0.625-1.631-0.625-3.642v-7.299z"></path>
<path fill="none" stroke="#484848" style="stroke: var(--color1, #484848)" stroke-linejoin="miter" stroke-linecap="round" stroke-miterlimit="4" stroke-width="1.0667" d="M12 9.333l-3.852-2.568c-0.090-0.060-0.206-0.060-0.296 0l-3.581 2.388c-0.14 0.093-0.16 0.291-0.041 0.41l3.494 3.494c0.177 0.177 0.276 0.417 0.276 0.667v0c0 0.521 0.422 0.943 0.943 0.943h14.114c0.521 0 0.943-0.422 0.943-0.943v0c0-0.25 0.099-0.49 0.276-0.667l3.494-3.494c0.119-0.119 0.099-0.317-0.041-0.41l-3.581-2.388c-0.090-0.060-0.206-0.060-0.296 0l-3.852 2.568"></path>
</symbol>
<symbol id="arrow-down" viewBox="0 0 32 32">
<path stroke-linejoin="miter" stroke-linecap="butt" stroke-miterlimit="4" stroke-width="1.3333" d="M24 12l-8 8-8-8"></path>
</symbol>
<symbol id="quotes-1" viewBox="0 0 32 32">
<path fill="#484848" style="fill: var(--color1, #484848)" opacity="0.5" d="M11.2 9.6l1.6-3.2h-3.2c-3.536 0-6.4 4.464-6.4 8v11.2h11.2v-11.2h-6.4c0-4.8 3.2-4.8 3.2-4.8zM22.4 14.4c0-4.8 3.2-4.8 3.2-4.8l1.6-3.2h-3.2c-3.536 0-6.4 4.464-6.4 8v11.2h11.2v-11.2h-6.4z"></path>
</symbol>
<symbol id="quotes-2" viewBox="0 0 32 32">
<path fill="#484848" style="fill: var(--color1, #484848)" opacity="0.5" d="M20.8 22.4l-1.6 3.2h3.2c3.536 0 6.4-4.464 6.4-8v-11.2h-11.2v11.2h6.4c0 4.8-3.2 4.8-3.2 4.8zM9.6 17.6c0 4.8-3.2 4.8-3.2 4.8l-1.6 3.2h3.2c3.536 0 6.4-4.464 6.4-8v-11.2h-11.2v11.2h6.4z"></path>
</symbol>
<symbol id="select" viewBox="0 0 32 32">
<path fill="#7faa84" style="fill: var(--color1, #7faa84)" d="M24.353 6.144c-2.944-2.944-7.738-2.944-10.678 0l-8.156 8.15c-0.053 0.053-0.081 0.125-0.081 0.2s0.028 0.147 0.081 0.2l1.153 1.153c0.053 0.053 0.124 0.082 0.198 0.082s0.146-0.029 0.198-0.082l8.156-8.15c1.012-1.013 2.359-1.569 3.791-1.569s2.778 0.556 3.788 1.569c1.012 1.012 1.569 2.359 1.569 3.787 0 1.431-0.556 2.775-1.569 3.788l-9.659 9.656c-1.259 1.259-3.306 1.259-4.566 0-0.609-0.609-0.944-1.419-0.944-2.281s0.334-1.672 0.944-2.281l8.247-8.244c0.209-0.206 0.484-0.322 0.778-0.322h0.003c0.294 0 0.566 0.116 0.772 0.322 0.209 0.209 0.322 0.484 0.322 0.778 0 0.291-0.116 0.566-0.322 0.772l-6.741 6.734c-0.053 0.053-0.081 0.125-0.081 0.2s0.028 0.147 0.081 0.2l1.153 1.153c0.053 0.052 0.124 0.082 0.198 0.082s0.146-0.029 0.198-0.082l6.738-6.737c0.622-0.622 0.962-1.447 0.962-2.325s-0.344-1.706-0.962-2.325c-1.284-1.284-3.372-1.281-4.656 0l-0.8 0.803-7.444 7.441c-0.505 0.502-0.906 1.1-1.178 1.758s-0.412 1.364-0.409 2.076c0 1.447 0.566 2.806 1.588 3.828 1.059 1.056 2.447 1.584 3.834 1.584s2.775-0.528 3.831-1.584l9.663-9.656c1.422-1.425 2.209-3.322 2.209-5.338 0.003-2.019-0.784-3.916-2.209-5.341z"></path>
</symbol>
</defs>
</svg>
